<svg xmlns="http://www.w3.org/2000/svg" width="415.324" height="699.623" viewBox="0 0 415.324 699.623"><defs><style>.a,.b{fill:#151116;}.b{font-size:110px;font-family:Helvetica;letter-spacing:0.02em;}.c{fill:#356a37;}.d{fill:#7aa77b;}.e{fill:#28fa2e;}</style></defs><g transform="translate(2634.88 358.045)"><g transform="translate(-2663.41 -329.586)"><rect class="a" width="45.95" height="194.916" transform="translate(211.714)"/><rect class="a" width="45.949" height="167.495" transform="translate(318.437 47.803) rotate(90)"/><path class="a" d="M-2448.925-230.362c-124.241,0-193.623,83.007-185.555,195.659s25.817,289.039,25.817,289.039h319.479s17.748-176.389,25.815-289.039S-2324.683-230.362-2448.925-230.362Z" transform="translate(2683.614 383.033)"/><rect class="a" width="45.95" height="194.916" transform="translate(234.69)"/><rect class="a" width="45.949" height="167.494" transform="translate(341.412 47.803) rotate(90)"/><path class="a" d="M-2432.729-230.362c-124.243,0-193.625,83.007-185.556,195.659s25.815,289.039,25.815,289.039h319.479s17.75-176.389,25.817-289.039S-2308.487-230.362-2432.729-230.362Z" transform="translate(2690.394 383.033)"/><g transform="translate(71.49 152.671)"><path class="a" d="M-2315.1,166.41l-42.734-15.007s52.277,2.857,52.2,5.385,35.311,45.918,35.311,45.918l2.4.048c5.87-60.819,15.423-163.033,20.754-237.457,3.745-52.286-9.219-98.165-36.584-132.341l-13.119,40.867-23.151,29.817v74.367l-18.942-91.2,22.45-20.7,9.095-56.848c-31.108-25.088-73.4-39.618-125.3-39.618-92.565,0-154.652,46.094-176.97,116.177l22.389,51.944,35.547,21.516-49.579-11.227L-2617.4-78.036a230.134,230.134,0,0,0-.892,43.332c8.068,112.65,25.815,289.039,25.815,289.039h319.479s1.1-10.936,2.875-29.08l-10.9-5.179Z" transform="translate(2618.908 230.362)"/><path class="a" d="M-2421.575-124.888l18.942,91.2v-74.367l23.151-29.817,13.119-40.867a154.507,154.507,0,0,0-23.667-23.7l-9.095,56.848Z" transform="translate(2701.509 242.052)"/><path class="a" d="M-2347.365,90.057s-35.394-43.389-35.311-45.918-52.2-5.385-52.2-5.385l42.733,15.007,34.087,53.667,10.9,5.179c.646-6.6,1.383-14.172,2.188-22.5Z" transform="translate(2695.943 343.01)"/><path class="a" d="M-2552.212-75.006l-35.547-21.516-22.39-51.944a193.141,193.141,0,0,0-7.693,36.15l16.051,26.084Z" transform="translate(2619.354 264.643)"/></g><text class="b" transform="translate(134.059 465.901)"><tspan x="0" y="0">R I P</tspan></text><text class="b" transform="translate(138.447 465.901)"><tspan x="0" y="0">R I P</tspan></text></g><g transform="translate(-2683.381 -358.045)"><rect class="c" width="45.949" height="194.916" transform="translate(211.715)"/><rect class="c" width="45.95" height="167.495" transform="translate(318.437 47.802) rotate(90)"/><rect class="c" width="372.378" height="62.255" transform="translate(48.501 637.367)"/><path class="c" d="M-2463-250.423c-124.241,0-193.623,83.007-185.556,195.657s25.815,289.039,25.815,289.039h319.479s17.749-176.387,25.816-289.039S-2338.761-250.423-2463-250.423Z" transform="translate(2697.693 403.094)"/><rect class="d" width="45.949" height="194.916" transform="translate(234.69)"/><rect class="d" width="45.95" height="167.495" transform="translate(341.413 47.802) rotate(90)"/><rect class="d" width="372.378" height="62.255" transform="translate(71.476 637.367)"/><g transform="translate(71.49 152.671)"><path class="d" d="M-2328.448,146.055l-42.04-14.577s50.849,2.719,50.769,5.248,35.31,45.918,35.31,45.918l2.857.252c5.872-60.819,14.966-163.237,20.3-237.663,3.744-52.285-8.754-98.218-36.12-132.4l-13.567,39.822-23.167,30.917.035,70.1-18.215-86.855,22.47-20.777,9.184-56.545c-31.108-25.086-74.269-39.92-126.177-39.92-92.564,0-154.65,46.094-176.969,116.177l22.39,51.944,35.547,21.514-49.578-11.225L-2631.475-98.1a230.323,230.323,0,0,0-.893,43.331c8.068,112.651,25.817,289.039,25.817,289.039h319.479s1.579-11.224,3.354-29.369l-10.731-5.3Z" transform="translate(2632.497 250.423)"/><path class="e" d="M-2435.654-144.95l18.944,91.205v-74.367l23.151-29.817,13.118-40.868a154.412,154.412,0,0,0-23.667-23.7l-9.1,56.85Z" transform="translate(2715.587 262.113)"/><path class="e" d="M-2361.444,70s-35.393-43.39-35.31-45.918-52.2-5.386-52.2-5.386l42.735,15.009,34.087,53.667,10.9,5.178c.646-6.6,1.383-14.172,2.186-22.5Z" transform="translate(2710.021 363.071)"/></g></g></g></svg>