<svg xmlns="http://www.w3.org/2000/svg" xmlns:xlink="http://www.w3.org/1999/xlink" width="126" height="150" viewBox="0 0 126 150"><defs><style>.a{fill:none;}.b{fill:#872c31;}.c{fill:#0e0e10;}.ai,.d{fill:#2c0605;}.e{fill:#f78700;}.f{clip-path:url(#a);}.g{fill:#f15a29;}.h{fill:#f1592a;}.i{fill:#f1582a;}.j{fill:#f1572b;}.k{fill:#f1562b;}.l{fill:#f1552c;}.m{fill:#f1542c;}.n{fill:#f0532d;}.o{fill:#f0522d;}.p{fill:#f0512e;}.q{fill:#f0502e;}.r{fill:#f04f2f;}.s{fill:#f04e30;}.t{fill:#f04c30;}.u{fill:#f04b31;}.v{fill:#f04a31;}.w{fill:#f04932;}.x{fill:#f04832;}.y{fill:#f04733;}.z{fill:#ef4633;}.aa{fill:#ef4534;}.ab{fill:#ef4434;}.ac{fill:#ef4335;}.ad{fill:#ef4235;}.ae{fill:#ef4136;}.af,.ai{opacity:0.5;}.ag{fill:#7aa77b;}.ah{fill:#28fa2e;}</style><clipPath id="a"><path class="a" d="M-2793.585,622.844v.006h-.045a.165.165,0,0,1,.041-.006Z" transform="translate(2793.63 -622.844)"/></clipPath></defs><g transform="translate(2956.739 -505.25)"><g transform="translate(-2956.739 505.25)"><g transform="translate(71.661 0)"><g transform="translate(28.513 81.638)"><path class="b" d="M-2799.32,632.583a2.79,2.79,0,0,1-2.791-2.789v-.024a2.79,2.79,0,0,1,2.162-2.718,2.807,2.807,0,0,1,.629-.071,2.792,2.792,0,0,1,2.508,1.566c.034.071.067.146.1.223a2.785,2.785,0,0,1-.09,2.242A2.806,2.806,0,0,1-2799.32,632.583Z" transform="translate(2802.111 -626.98)"/></g><g transform="translate(31.304 84.427)"><path class="b" d="M-2798.239,630.863c0,.007,0,.007-.007.007v-.025C-2798.242,630.853-2798.242,630.857-2798.239,630.863Z" transform="translate(2798.245 -630.846)"/></g><path class="c" d="M-2797.86,517.942l-1.957,25.409,9.192,25.741a2.763,2.763,0,0,1,.474,1.227l2.853,21.8a2.785,2.785,0,0,1-.67,2.2,2.79,2.79,0,0,1-1.032.735,2.749,2.749,0,0,1-1.063.213h-14.563a9.828,9.828,0,0,1-2.456,3.954,23.6,23.6,0,0,1,.48,4.243c.021.492.032,1.025.032,1.674l2.5,45.8c0,.052,0,.1,0,.153a14.668,14.668,0,0,1-2.686,8.674,9.57,9.57,0,0,1-6.014,3.923,7.647,7.647,0,0,1-1.406.126c-5.668,0-10.1-5.589-10.1-12.722,0-.045,0-.09,0-.136l2.232-46a24.484,24.484,0,0,1,.583-5.808,0,0,0,0,1,0,0,9.782,9.782,0,0,1-2.393-3.881h-14.967a2.792,2.792,0,0,1-2.044-.889,2.789,2.789,0,0,1-.74-2.1l1.521-21.257a2.765,2.765,0,0,1,.178-1.248l9.791-25.357-2.243-26.647c1-1.369,2.459-3.006,2.459-3.006l.141-.177.183.159a28.29,28.29,0,0,1,2.756,2.382c.089.094,1.615,10.511,6.177,18.15,0,0,2.741-18.834,2.749-18.858a3.127,3.127,0,0,1,3.09-2.6,3.117,3.117,0,0,1,3.129,2.894l.188,2.485c.025.112.042.227.056.342l1.96,15.737c4.479-7.621,5.963-17.887,6.066-17.962,1.478-1.077,2.141-1.617,3.149-2.372" transform="translate(2841.612 -513.825)"/><g transform="translate(2.791 2.789)"><path class="d" d="M-2808.284,606.3l2.5,45.881a11.925,11.925,0,0,1-2.142,7.022,6.79,6.79,0,0,1-4.239,2.827,5.223,5.223,0,0,1-.935.084c-4.039,0-7.314-4.449-7.314-9.933l2.236-46.066a16.521,16.521,0,0,1,1.068-6.826,6.912,6.912,0,0,1-1.308-1.028,6.994,6.994,0,0,1-2.055-4.7h-17.277l1.555-21.741-.038.041,10.025-25.956-2.3-27.285s2.484,16.829,10.764,24.552l3.67-25.193a.346.346,0,0,1,.687.031l.209,2.744a.64.64,0,0,1,.045.188l2.793,22.415c8.281-7.726,10.765-24.552,10.765-24.552l-2,26,4.367,12.23,5.362,15.009v-.286l2.853,21.8h-16.869v-.007h0a.162.162,0,0,0-.041.007h.041a7.015,7.015,0,0,1-3.384,5.742c0,.007.007.017.011.024v.025s0,0,.007-.007c.074.164.143.342.206.527s.094.276.129.411a18.579,18.579,0,0,1,.579,4.365C-2808.292,605.183-2808.284,605.733-2808.284,606.3Z" transform="translate(2837.745 -517.691)"/></g><g transform="translate(34.635 78.654)"><path class="e" d="M-2793.589,622.844s0,.006,0,.006h-.041A.165.165,0,0,1-2793.589,622.844Z" transform="translate(2793.63 -622.844)"/></g><g transform="translate(34.635 78.654)"><g class="f"><g transform="translate(0 0)"><rect class="g" width="0.045" height="0.007"/></g><g transform="translate(-0.009 -0.032)"><ellipse class="g" cx="0.035" cy="0.035" rx="0.035" ry="0.035"/></g><g transform="translate(-0.007 -0.031)"><ellipse class="h" cx="0.034" cy="0.034" rx="0.034" ry="0.034"/></g><g transform="translate(-0.006 -0.029)"><ellipse class="i" cx="0.032" cy="0.032" rx="0.032" ry="0.032"/></g><g transform="translate(-0.005 -0.028)"><ellipse class="j" cx="0.031" cy="0.031" rx="0.031" ry="0.031"/></g><g transform="translate(-0.003 -0.027)"><ellipse class="k" cx="0.03" cy="0.03" rx="0.03" ry="0.03"/></g><g transform="translate(-0.002 -0.025)"><ellipse class="l" cx="0.028" cy="0.028" rx="0.028" ry="0.028"/></g><g transform="translate(0 -0.024)"><ellipse class="m" cx="0.027" cy="0.027" rx="0.027" ry="0.027"/></g><g transform="translate(0.001 -0.022)"><ellipse class="n" cx="0.025" cy="0.025" rx="0.025" ry="0.025"/></g><g transform="translate(0.002 -0.021)"><ellipse class="o" cx="0.024" cy="0.024" rx="0.024" ry="0.024"/></g><g transform="translate(0.004 -0.02)"><ellipse class="p" cx="0.023" cy="0.023" rx="0.023" ry="0.023"/></g><g transform="translate(0.005 -0.018)"><ellipse class="q" cx="0.021" cy="0.021" rx="0.021" ry="0.021"/></g><g transform="translate(0.006 -0.017)"><path class="r" d="M-2793.6,622.861a.021.021,0,0,1-.02-.02.02.02,0,0,1,.02-.02.019.019,0,0,1,.02.02A.02.02,0,0,1-2793.6,622.861Z" transform="translate(2793.621 -622.821)"/></g><g transform="translate(0.008 -0.015)"><path class="s" d="M-2793.6,622.86a.019.019,0,0,1-.019-.019.019.019,0,0,1,.019-.018.018.018,0,0,1,.018.018A.019.019,0,0,1-2793.6,622.86Z" transform="translate(2793.619 -622.823)"/></g><g transform="translate(0.009 -0.014)"><path class="t" d="M-2793.6,622.859a.017.017,0,0,1-.017-.017.017.017,0,0,1,.017-.016.016.016,0,0,1,.017.016A.017.017,0,0,1-2793.6,622.859Z" transform="translate(2793.617 -622.825)"/></g><g transform="translate(0.011 -0.012)"><ellipse class="u" cx="0.016" cy="0.016" rx="0.016" ry="0.016"/></g><g transform="translate(0.012 -0.011)"><path class="v" d="M-2793.6,622.857a.014.014,0,0,1-.015-.014.014.014,0,0,1,.015-.014.013.013,0,0,1,.014.014A.014.014,0,0,1-2793.6,622.857Z" transform="translate(2793.613 -622.829)"/></g><g transform="translate(0.014 -0.01)"><ellipse class="w" cx="0.013" cy="0.013" rx="0.013" ry="0.013"/></g><g transform="translate(0.015 -0.008)"><path class="x" d="M-2793.6,622.855a.011.011,0,0,1-.011-.011.011.011,0,0,1,.011-.011.011.011,0,0,1,.011.011A.011.011,0,0,1-2793.6,622.855Z" transform="translate(2793.609 -622.833)"/></g><g transform="translate(0.017 -0.006)"><path class="y" d="M-2793.6,622.854a.01.01,0,0,1-.01-.01.01.01,0,0,1,.01-.009.009.009,0,0,1,.009.009A.009.009,0,0,1-2793.6,622.854Z" transform="translate(2793.607 -622.835)"/></g><g transform="translate(0.018 -0.006)"><path class="z" d="M-2793.6,622.853a.008.008,0,0,1-.009-.009.009.009,0,0,1,.009-.009.009.009,0,0,1,.008.009A.008.008,0,0,1-2793.6,622.853Z" transform="translate(2793.605 -622.836)"/></g><g transform="translate(0.019 -0.004)"><path class="aa" d="M-2793.6,622.852a.007.007,0,0,1-.007-.007.007.007,0,0,1,.007-.007.008.008,0,0,1,.008.007A.008.008,0,0,1-2793.6,622.852Z" transform="translate(2793.603 -622.838)"/></g><g transform="translate(0.021 -0.003)"><path class="ab" d="M-2793.6,622.852a.005.005,0,0,1-.006-.006.006.006,0,0,1,.006-.006.006.006,0,0,1,.006.006A.006.006,0,0,1-2793.6,622.852Z" transform="translate(2793.601 -622.84)"/></g><g transform="translate(0.022 -0.001)"><ellipse class="ac" cx="0.004" cy="0.004" rx="0.004" ry="0.004"/></g><g transform="translate(0.024 0)"><path class="ad" d="M-2793.594,622.85l0,0,0,0,0,0Z" transform="translate(2793.597 -622.844)"/></g><g transform="translate(0.025 0.002)"><path class="ae" d="M-2793.594,622.849h0Z" transform="translate(2793.595 -622.846)"/></g></g></g><g class="af" transform="translate(28.513 81.638)"><path class="d" d="M-2799.32,632.583a2.79,2.79,0,0,1-2.791-2.789v-.024a2.79,2.79,0,0,1,2.162-2.718,2.807,2.807,0,0,1,.629-.071,2.792,2.792,0,0,1,2.508,1.566c.034.071.067.146.1.223a2.785,2.785,0,0,1-.09,2.242A2.806,2.806,0,0,1-2799.32,632.583Z" transform="translate(2802.111 -626.98)"/></g><g class="af" transform="translate(31.304 84.427)"><path class="d" d="M-2798.239,630.863c0,.007,0,.007-.007.007v-.025C-2798.242,630.853-2798.242,630.857-2798.239,630.863Z" transform="translate(2798.245 -630.846)"/></g><g class="af" transform="translate(31.293 78.654)"><path class="d" d="M-2794.873,622.844v.006a6.689,6.689,0,0,1-3.37,5.784c0,.007,0,.007-.007.007v-.024c0-.007-.007-.017-.011-.025a7.015,7.015,0,0,0,3.383-5.742h-.041a.163.163,0,0,1,.041-.006Z" transform="translate(2798.26 -622.844)"/></g><g class="af" transform="translate(36.968 1.125)"><path class="d" d="M-2773.721,594.761a2.79,2.79,0,0,1-1.032.735q-.607-1.825-1.2-3.654c-.027-.076-.052-.153-.076-.23q-2.633-7.98-5.257-15.964-1.33-4.874-2.661-9.749-3.223-11.813-6.447-23.627,1.612-9.921,3.223-19.845c.07-.422.137-.847.206-1.269.314-1.921.652-3.854.962-5.775.865,1.079,1.569,1.978,2.394,2.993l-1.957,25.409,9.192,25.741a2.757,2.757,0,0,1,.474,1.227l2.854,21.8A2.785,2.785,0,0,1-2773.721,594.761Z" transform="translate(2790.398 -515.384)"/></g></g><g transform="translate(0 13.364)"><path class="c" d="M-2894.132,593.972c.021-.51.028-1.056.032-1.7l2.52-46.2a16.134,16.134,0,0,0-2.84-9.36,11.779,11.779,0,0,0-2.079-2.184,9.559,9.559,0,0,0-6.9-2.135,9.689,9.689,0,0,0-5.377,2.378,12.826,12.826,0,0,0-3.351,4.734,16.449,16.449,0,0,0-1.242,6.378v.084l2.256,46.48a26.252,26.252,0,0,0,.518,5.631,10.6,10.6,0,0,0-2.143,3.426h-28.147l13.574,47.015,21.235,7.682,1.538.563,23.761-8.185,17.71-47.074h-29.21a11.084,11.084,0,0,0-2.105-3.458S-2894.178,595.291-2894.132,593.972Z" transform="translate(2940.889 -532.348)"/><g transform="translate(4.536 3.51)"><path class="b" d="M-2883.333,547.236l-2.527,46.289c0,.57-.007,1.126-.028,1.664a18.789,18.789,0,0,1-.585,4.4c-.042.141-.085.281-.13.416-.067.193-.137.376-.215.548a3.929,3.929,0,0,1-3.9,2.617c-4.075,0-5.124-3.929-5.124-9.462l-2.256-46.476c0-5.533,3.3-10.022,7.38-10.022a5.259,5.259,0,0,1,.943.084,6.854,6.854,0,0,1,4.276,2.853A12.034,12.034,0,0,1-2883.333,547.236Z" transform="translate(2924.448 -537.214)"/><path class="ag" d="M-2883.429,630.721h-14.756a7.072,7.072,0,0,1,2.08-5.016,7.074,7.074,0,0,1,3.53-1.921,6.931,6.931,0,0,1,1.489-.158h.556a7.092,7.092,0,0,1,7.1,7.031A.362.362,0,0,1-2883.429,630.721Z" transform="translate(2924.474 -561.283)"/><path class="ah" d="M-2866.549,633.075l-15.337,40.771-21.017,7.239-.366-.134-19.556-7.077-11.779-40.8Z" transform="translate(2934.604 -563.914)"/><path class="ai" d="M-2854.474,633.075l-15.337,40.771-21.017,7.239-.366-.134,36.047-47.876Z" transform="translate(2922.529 -563.914)"/><path class="ai" d="M-2880.125,547.268l-2.527,46.29c0,.57-.007,1.125-.028,1.664a18.766,18.766,0,0,1-.584,4.4c-.036.137-.075.239-.13.416-.067.193-.137.376-.215.548a375.365,375.365,0,0,0-.971-44.693q-.787-9.613-1.981-18.565a6.853,6.853,0,0,1,4.276,2.853A12.03,12.03,0,0,1-2880.125,547.268Z" transform="translate(2921.24 -537.247)"/><path class="ai" d="M-2881.276,630.448c-.975-.06-1.754-2.207-3.785-4.075a10.98,10.98,0,0,0-5.353-2.589,6.928,6.928,0,0,1,1.489-.158h.556A6.911,6.911,0,0,1-2881.276,630.448Z" transform="translate(2922.312 -561.283)"/></g></g></g><g transform="translate(-2882.207 508.25)"><g transform="translate(0)"><path class="b" d="M-2799.306,681.618l-2.484-45.5c0-.56-.007-1.106-.028-1.635a18.423,18.423,0,0,0-.574-4.329c-.042-.139-.083-.277-.127-.408-.066-.19-.135-.37-.211-.54a3.862,3.862,0,0,0-3.83-2.572c-4.005,0-5.037,3.862-5.037,9.3l-2.217,45.684c0,5.439,3.248,9.851,7.254,9.851a5.215,5.215,0,0,0,.927-.083,6.73,6.73,0,0,0,4.2-2.8A11.825,11.825,0,0,0-2799.306,681.618Z" transform="translate(2831.009 -548.246)"/><path class="ag" d="M-2799.4,621.893h-14.5a6.948,6.948,0,0,0,2.044,4.93,6.947,6.947,0,0,0,3.469,1.888,6.793,6.793,0,0,0,1.464.156h.546a6.972,6.972,0,0,0,6.978-6.912A.386.386,0,0,0-2799.4,621.893Z" transform="translate(2831.033 -546.926)"/><g transform="translate(0 29.424)"><path class="ah" d="M-2789.283,604.586h-48.352l1.542-21.563,21.521-23.846.368-.409,12.567,13.925,9.523,10.55v-.279Z" transform="translate(2837.635 -558.767)"/></g><g class="af" transform="translate(25.375 80.959)"><path class="d" d="M-2796.154,682.611l-2.484-45.5c0-.56-.007-1.106-.028-1.635a18.372,18.372,0,0,0-.574-4.329c-.035-.135-.073-.234-.127-.408-.066-.191-.135-.37-.212-.54a369.111,369.111,0,0,1-.954,43.932q-.774,9.449-1.948,18.249a6.73,6.73,0,0,0,4.2-2.8A11.824,11.824,0,0,0-2796.154,682.611Z" transform="translate(2802.481 -630.198)"/></g><g class="af" transform="translate(22.642 75.236)"><path class="d" d="M-2797.285,622.265c-.958.059-1.482,2.617-3.478,4.452-1.633,1.5-3.813,1.759-5.5,2.1a6.8,6.8,0,0,0,1.464.156h.546A6.794,6.794,0,0,0-2797.285,622.265Z" transform="translate(2806.267 -622.265)"/></g><g transform="translate(1.507)"><path class="ag" d="M-2791.532,571.883l-9.523-10.55-12.567-13.925-.367.41-21.521,23.846-.036.042,9.939-25.738-2.273-27.013c.155.984,2.712,16.878,10.669,24.3l3.643-24.985a.341.341,0,0,1,.677.03l.208,2.722a.454.454,0,0,1,.048.183l2.771,22.234c7.18-6.7,9.969-20.306,10.55-23.615v-.006c.065-.35.1-.587.118-.682l-1.981,25.732,4.331,12.134Z" transform="translate(2835.547 -517.984)"/></g></g></g><g class="af" transform="translate(-2848.873 509.404)"><path class="d" d="M-2776.437,593.672h-.214q-6.159-15.968-12.14-31.894-1.335-3.558-2.664-7.111,2.2-17.2,4.4-34.4v-.006c.065-.35.1-.587.119-.682l-1.982,25.732,4.331,12.134,5.316,14.88.026.24Z" transform="translate(2791.455 -519.583)"/></g></g></svg>