<svg xmlns="http://www.w3.org/2000/svg" width="161.406" height="161.404" viewBox="0 0 161.406 161.404"><defs><style>.a{isolation:isolate;}.b,.c{fill:none;}.b,.d{stroke-miterlimit:10;}.d,.e{fill:#fff;}.d{stroke:#231f20;stroke-width:0.307px;}.f{fill:#7aa77b;}.g{fill:#28fa2e;}.h{fill:#efe2dd;}.i{fill:#fff5f5;}.j{fill:#faa916;}.k{fill:#ef4136;}.l,.m{stroke:none;}.m{fill:#0e0e10;}</style></defs><g class="a" transform="translate(2593.624 -529.338)"><g transform="translate(-2586.219 536.743)"><g class="b" transform="translate(1121.702 6153.703)"><path class="l" d="M-1038.852-6003.7h0A67.147,67.147,0,0,1-1106-6070.853,67.147,67.147,0,0,1-1038.852-6138h0a67.149,67.149,0,0,1,67.149,67.147,67.149,67.149,0,0,1-67.149,67.149h0Z"/><path class="m" d="M -1038.850830078125 -6003.70361328125 C -1001.766418457031 -6003.70361328125 -971.7017211914062 -6033.7666015625 -971.7017211914062 -6070.8525390625 C -971.7017211914062 -6107.93701171875 -1001.766418457031 -6138 -1038.850830078125 -6138 L -1038.852416992188 -6138 C -1075.938354492188 -6138 -1106 -6107.93701171875 -1106 -6070.8525390625 C -1106 -6033.7666015625 -1075.938354492188 -6003.70361328125 -1038.852416992188 -6003.70361328125 L -1038.850830078125 -6003.70361328125 M -1038.850830078125 -5999.70361328125 L -1038.8515625 -5999.70361328125 C -1048.455810546875 -5999.70361328125 -1057.774047851562 -6001.58544921875 -1066.548095703125 -6005.29638671875 C -1070.764770507812 -6007.080078125 -1074.831420898438 -6009.287109375 -1078.635131835938 -6011.85693359375 C -1082.401611328125 -6014.4013671875 -1085.943359375 -6017.32373046875 -1089.161865234375 -6020.54248046875 C -1092.380493164062 -6023.76123046875 -1095.302612304688 -6027.302734375 -1097.84716796875 -6031.0693359375 C -1100.416748046875 -6034.873046875 -1102.6240234375 -6038.93994140625 -1104.407470703125 -6043.15673828125 C -1108.118408203125 -6051.9306640625 -1110 -6061.2490234375 -1110 -6070.8525390625 C -1110 -6080.45556640625 -1108.118408203125 -6089.7734375 -1104.407470703125 -6098.54736328125 C -1102.6240234375 -6102.76416015625 -1100.416748046875 -6106.83056640625 -1097.84716796875 -6110.63427734375 C -1095.302490234375 -6114.40087890625 -1092.38037109375 -6117.94287109375 -1089.161865234375 -6121.1611328125 C -1085.943359375 -6124.3798828125 -1082.401611328125 -6127.30224609375 -1078.635131835938 -6129.8466796875 C -1074.831420898438 -6132.41650390625 -1070.764770507812 -6134.62353515625 -1066.548095703125 -6136.4072265625 C -1057.774047851562 -6140.1181640625 -1048.455810546875 -6142 -1038.852416992188 -6142 C -1029.247802734375 -6142 -1019.929748535156 -6140.1181640625 -1011.155639648438 -6136.4072265625 C -1006.938903808594 -6134.62353515625 -1002.872192382812 -6132.41650390625 -999.068359375 -6129.8466796875 C -995.3017578125 -6127.30224609375 -991.7598876953125 -6124.3798828125 -988.541259765625 -6121.16162109375 C -985.3225708007812 -6117.94287109375 -982.4002685546875 -6114.40087890625 -979.8555297851562 -6110.634765625 C -977.2857055664062 -6106.8310546875 -975.078369140625 -6102.76416015625 -973.2947998046875 -6098.5478515625 C -969.58349609375 -6089.7734375 -967.7017211914062 -6080.45556640625 -967.7017211914062 -6070.8525390625 C -967.7017211914062 -6061.2490234375 -969.58349609375 -6051.9306640625 -973.2947998046875 -6043.15673828125 C -975.0783081054688 -6038.93994140625 -977.2857055664062 -6034.873046875 -979.8555297851562 -6031.0693359375 C -982.4002685546875 -6027.302734375 -985.3225708007812 -6023.76123046875 -988.5411987304688 -6020.54248046875 C -991.7598876953125 -6017.32373046875 -995.3016967773438 -6014.4013671875 -999.068359375 -6011.85693359375 C -1002.872131347656 -6009.287109375 -1006.938903808594 -6007.080078125 -1011.155578613281 -6005.29638671875 C -1019.929748535156 -6001.58544921875 -1029.247802734375 -5999.70361328125 -1038.850830078125 -5999.70361328125 Z"/></g><g class="c" transform="translate(2570.859 -556.079)"><path class="l" d="M-2557.286,569.653l-13.573,4.525,27.2,27.2,14.67-3.427,3.428-14.67-27.2-27.2Z"/><path class="m" d="M -2552.759765625 556.0789794921875 L -2557.28564453125 569.6533813476562 L -2570.85888671875 574.1782836914062 L -2543.6572265625 601.3786010742188 L -2528.98681640625 597.9511108398438 L -2525.55908203125 583.2813110351562 L -2552.759765625 556.0789794921875 M -2554.50732421875 548.6741943359375 L -2521.157958984375 582.0256958007812 L -2525.656982421875 601.2808837890625 L -2544.912841796875 605.7796630859375 L -2578.263916015625 572.430419921875 L -2560.44775390625 566.4911499023438 L -2554.50732421875 548.6741943359375 Z"/></g><path class="d" d="M-2504.653,692.351" transform="translate(2567.773 -562.43)"/><g transform="translate(122.152 29.072)"><path class="e" d="M-2442.735,586.941a2.721,2.721,0,0,0,.447.346,2.708,2.708,0,0,0,.561.262.657.657,0,0,0-.047-.863A.669.669,0,0,0-2442.735,586.941Z" transform="translate(2442.735 -586.573)"/></g><path class="f" d="M-2554.389,639.7a67.149,67.149,0,0,0,67.148,67.149l28.119-63.119-28.119-71.177A67.148,67.148,0,0,0-2554.389,639.7Z" transform="translate(2570.092 -556.847)"/><path class="g" d="M-2483.958,572.55v134.3a67.15,67.15,0,0,0,67.149-67.149A67.149,67.149,0,0,0-2483.958,572.55Z" transform="translate(2566.809 -556.847)"/><path class="h" d="M-2535.809,640.564A49.435,49.435,0,0,0-2486.374,690l20.7-46.467-20.7-52.4A49.435,49.435,0,0,0-2535.809,640.564Z" transform="translate(2569.225 -557.713)"/><path class="i" d="M-2483.958,591.131V690a49.433,49.433,0,0,0,49.433-49.434A49.432,49.432,0,0,0-2483.958,591.131Z" transform="translate(2566.809 -557.713)"/><path class="f" d="M-2517.227,641.431a31.719,31.719,0,0,0,31.719,31.718l13.282-29.815-13.282-33.623A31.719,31.719,0,0,0-2517.227,641.431Z" transform="translate(2568.359 -558.579)"/><path class="g" d="M-2483.957,609.711v63.437a31.718,31.718,0,0,0,31.719-31.719A31.719,31.719,0,0,0-2483.957,609.711Z" transform="translate(2566.809 -558.579)"/><path class="h" d="M-2498.646,642.3a14,14,0,0,0,14,14l5.864-13.163-5.864-14.844A14,14,0,0,0-2498.646,642.3Z" transform="translate(2567.493 -559.445)"/><path class="i" d="M-2483.957,628.293V656.3a14,14,0,0,0,14-14A14,14,0,0,0-2483.957,628.293Z" transform="translate(2566.809 -559.445)"/><path class="j" d="M-2483.405,637.317l-6.215,6.215-49.16-49.159,6.217-6.215Z" transform="translate(2569.364 -557.574)"/><path class="k" d="M-2557.286,569.653l-13.573,4.525,27.2,27.2,14.67-3.427,3.428-14.67-27.2-27.2Z" transform="translate(2570.859 -556.079)"/></g></g></svg>