<svg xmlns="http://www.w3.org/2000/svg" width="144" height="150" viewBox="0 0 144 150"><defs><style>.a{isolation:isolate;}.b{fill:#0e0e10;}.c{fill:#93bc46;}.d{fill:#76ff7a;}.e{fill:#30db35;}.f{fill:#21b725;}.g{fill:#a8ffab;}.h{fill:#28fa2e;}.i{fill:#7aa77b;}</style></defs><g class="a" transform="translate(2456.148 -852.835)"><g transform="translate(-2456.148 852.835)"><g transform="translate(0 10.616)"><path class="b" d="M-2420.146,1013.607a3.053,3.053,0,0,1-3.056-3.05c0-34.1-14.137-51.274-14.28-51.444a3.038,3.038,0,0,1-.211-3.636,3.06,3.06,0,0,1,2.551-1.369,3.082,3.082,0,0,1,.887.131c13.811,4.176,22.6,11.854,28.186,20.113a232.513,232.513,0,0,0-16.364-53.848,3.039,3.039,0,0,1,.663-3.54,3.064,3.064,0,0,1,2.093-.825,3.049,3.049,0,0,1,1.495.39c22.363,12.516,32.981,36.237,37.985,57.361,3.9-27.807,14.232-65.233,41.228-88.12a3.054,3.054,0,0,1,1.98-.726,3.061,3.061,0,0,1,1.8.586,3.042,3.042,0,0,1,1.018,3.634c-.138.33-10.412,25.261-16.681,63.588,6.251-14.291,15.945-27.911,30.965-36.322a3.059,3.059,0,0,1,1.5-.39,3.058,3.058,0,0,1,2.091.824,3.041,3.041,0,0,1,.666,3.54,233.252,233.252,0,0,0-16.343,53.8c5.584-8.226,14.358-15.9,28.134-20.061a3.074,3.074,0,0,1,.886-.131,3.059,3.059,0,0,1,2.551,1.369,3.038,3.038,0,0,1-.21,3.636c-.137.166-14.278,17.532-14.279,51.444a3.055,3.055,0,0,1-3.057,3.05Z" transform="translate(2438.198 -885.043)"/><path class="c" d="M-2302.656,957.463s-14.995,17.8-14.995,53.406h-102.2c0-35.6-15-53.406-15-53.406,25.937,7.84,33.189,28.6,35.115,41.8-2.669-44.52-19.651-79.769-19.651-79.769,31.844,17.822,38.823,60.434,40.331,80.53.734-23.844,6.387-81.129,42.357-111.625,0,0-18.6,44.419-21.331,107.2,2.19-21.387,10.279-59.5,39.933-76.1,0,0-16.849,34.994-19.61,79.291C-2335.662,985.562-2328.287,965.211-2302.656,957.463Z" transform="translate(2437.899 -885.351)"/></g><g transform="translate(2.653 13.66)"><path class="d" d="M-2418.306,922.632s20,41.537,20,91.382h20.715S-2375.924,946.367-2418.306,922.632Z" transform="translate(2433.775 -891.538)"/><path class="e" d="M-2311.1,922.632s-20,41.537-20,91.382h-20.715S-2353.487,946.367-2311.1,922.632Z" transform="translate(2427.86 -891.538)"/><path class="f" d="M-2293.687,964.448s-14.991,17.8-14.991,53.405h-20.715S-2332.974,976.315-2293.687,964.448Z" transform="translate(2425.872 -895.377)"/><path class="g" d="M-2435.285,964.448s14.991,17.8,14.991,53.405h20.715S-2396,976.315-2435.285,964.448Z" transform="translate(2435.285 -895.377)"/><path class="h" d="M-2331.693,888.395s-21.667,51.743-21.667,122.476h-20.714S-2377.885,927.559-2331.693,888.395Z" transform="translate(2429.846 -888.395)"/></g><g transform="translate(112.364)"><path class="i" d="M-2283.226,897.252c-1.206-2.576-9.564-2.834-9.564-2.834s8.143-4.379,4.071-9.212a14.111,14.111,0,0,1-3.425-10.757,12.564,12.564,0,0,0-3.424,2.577s-.8-.559-.388-3.672c-13,8.293-6.163,21.013-4.522,23.845a10.967,10.967,0,0,0-2.412-.986,1.009,1.009,0,0,0-.382.12,20,20,0,0,1-5.93-5.477,14.574,14.574,0,0,1-.673-3.935,21.125,21.125,0,0,0-.978-5.45.467.467,0,0,0,.124-.313.472.472,0,0,0-.474-.47.474.474,0,0,0-.474.473.473.473,0,0,0,.473.472.5.5,0,0,0,.126-.026,21.375,21.375,0,0,1,.943,5.343,14.137,14.137,0,0,0,.705,4.039,19.127,19.127,0,0,0,5.127,4.972c-1.709-.487-8.564-2.619-9.859-5.921a.463.463,0,0,0,.244-.4.472.472,0,0,0-.474-.471.47.47,0,0,0-.472.47.471.471,0,0,0,.452.468c1.484,3.893,10.028,6.109,10.4,6.2l.468.243a.992.992,0,0,0-.25.653,1,1,0,0,0,1,1,1,1,0,0,0,.907-.579,6.8,6.8,0,0,0,2.131,1.8c.781.447,2.017.826,3.178,1.535l1.265,1.125s.116.08.323.2a6,6,0,0,1,1.371,3.562,4.844,4.844,0,0,0-.248-2.971,5.644,5.644,0,0,0,4.3.491c2.413-1.009,1.723-1.826,6.334-4.637a6.761,6.761,0,0,1-1.551-.966A2.917,2.917,0,0,1-2283.226,897.252Z" transform="translate(2314.862 -873.354)"/></g><g transform="translate(47.744 40.397)"><path class="i" d="M-2381.722,936.495a4.406,4.406,0,0,1-.519,1.072c3.53-.045,3.433.645,5.12.366a3.676,3.676,0,0,0,2.208-1.766,3.172,3.172,0,0,0,.9,1.728,3.918,3.918,0,0,1-.486-2.445c.07-.141.107-.225.107-.225l.306-1.061c.395-.795.945-1.433,1.222-1.952a4.425,4.425,0,0,0,.549-1.735.656.656,0,0,0,.7,0,.651.651,0,0,0,.2-.9.65.65,0,0,0-.366-.274l.173-.3c.173-.181,4.123-4.371,3.583-7.038a.307.307,0,0,0,.087-.415.308.308,0,0,0-.426-.1.308.308,0,0,0-.1.425.3.3,0,0,0,.276.137c.437,2.275-2.607,5.833-3.381,6.694a12.49,12.49,0,0,0,1.1-4.527,9.292,9.292,0,0,0-1.021-2.477,14.046,14.046,0,0,1-1.345-3.281.3.3,0,0,0,.079-.03.308.308,0,0,0,.1-.425.311.311,0,0,0-.427-.1.307.307,0,0,0-.1.425.307.307,0,0,0,.178.13,13.845,13.845,0,0,0,1.363,3.352,9.52,9.52,0,0,1,1,2.408,13.045,13.045,0,0,1-1.365,5.086.649.649,0,0,0-.253.066,7.049,7.049,0,0,0-.989,1.382c-.082-2.135-.745-11.539-10.826-11.611,1.313,1.578,1.067,2.163,1.067,2.163a8.236,8.236,0,0,0-2.792-.235,9.22,9.22,0,0,1,1.863,7.135c-.563,4.084,5.467,3.679,5.467,3.679s-4.529,3.042-4.3,4.885A1.9,1.9,0,0,1-2381.722,936.495Z" transform="translate(2385.791 -917.835)"/></g></g><rect class="b" width="123.178" height="14.244" transform="translate(-2448.976 988.591)"/></g></svg>