<svg xmlns="http://www.w3.org/2000/svg" width="460.011" height="632" viewBox="0 0 460.011 632"><defs><style>.a{fill:#7aa77b;stroke-miterlimit:10;}.a,.b{stroke:#28fa2e;stroke-width:10px;}.b{fill:#28fa2e;}</style></defs><g transform="translate(-143.49 -4707.67)"><g transform="translate(148.501 4712.67)"><g transform="translate(0 0)"><path class="a" d="M0,622V551.2H30.1C30.053,550.688,9.891,350.449.721,222.5-8.462,94.4,70.511,0,211.925,0q6.486,0,12.8.263Q231.027,0,237.517,0C296.6,0,345.727,16.869,381.135,45.4l-3.552,21.85A178.221,178.221,0,0,1,398.77,97.863l8.839-25.921c31.149,38.867,45.374,91.1,41.112,150.561-6.068,84.639-16.419,201.109-23.1,270.273l-3.251-.287s-10.266-12.574-20.42-25.4c-.9,9.435-1.753,18.313-2.547,26.524l11.538,18.155,12.214,6.03c-2.019,20.635-3.817,33.4-3.817,33.4H450V622H0Z" transform="translate(0 0)"/><g transform="translate(323.322 45.053)"><path class="b" d="M-2435.654-134.31l21.563,103.72v-84.57l26.351-33.909,14.931-46.476a175.691,175.691,0,0,0-26.938-26.951l-10.353,64.65Z" transform="translate(2457.124 222.496)"/><path class="b" d="M-2349.349,77.036s-40.285-49.344-40.191-52.219-59.411-6.125-59.411-6.125l48.642,17.068,38.8,61.03,12.4,5.888c.735-7.5,1.574-16.116,2.488-25.587Z" transform="translate(2448.951 370.4)"/></g></g></g></g></svg>